<svg xmlns="http://www.w3.org/2000/svg" xmlns:xlink="http://www.w3.org/1999/xlink" width="523" height="204" viewBox="0 0 523 204">
  <defs>
    <clipPath id="clip-path">
      <rect id="Rectángulo_3" data-name="Rectángulo 3" width="523" height="204" transform="translate(27 13)" fill="#fff" stroke="#d72638" stroke-width="1"/>
    </clipPath>
    <linearGradient id="linear-gradient" y1="0.501" x2="1" y2="0.501" gradientUnits="objectBoundingBox">
      <stop offset="0.078" stop-color="#e9000d"/>
      <stop offset="0.101" stop-color="#da000c"/>
      <stop offset="0.256" stop-color="#7e0007"/>
      <stop offset="0.381" stop-color="#3a0003"/>
      <stop offset="0.471" stop-color="#100001"/>
      <stop offset="0.517"/>
      <stop offset="0.552" stop-color="#2c2d07"/>
      <stop offset="0.594" stop-color="#5b5e0f"/>
      <stop offset="0.638" stop-color="#858917"/>
      <stop offset="0.685" stop-color="#a9ae1d"/>
      <stop offset="0.733" stop-color="#c6cb21"/>
      <stop offset="0.784" stop-color="#dce225"/>
      <stop offset="0.838" stop-color="#ecf228"/>
      <stop offset="0.899" stop-color="#f5fc2a"/>
      <stop offset="0.979" stop-color="#f8ff2a"/>
    </linearGradient>
  </defs>
  <g id="Enmascarar_grupo_1" data-name="Enmascarar grupo 1" transform="translate(-27 -13)" clip-path="url(#clip-path)">
    <g id="real" transform="translate(148.692 13)">
      <path id="Trazado_1" data-name="Trazado 1" d="M62.183,6.5" transform="translate(136.187 -6.5)" fill="#fff"/>
      <g id="Grupo_1" data-name="Grupo 1" transform="translate(31.916 184.249)">
        <path id="Trazado_4" data-name="Trazado 4" d="M22.223,82.728a24.8,24.8,0,0,1-3.032-.913c1.068-.492,1.638-.8,2.257-1.032" transform="translate(-6.584 -63.396)" fill="url(#linear-gradient)"/>
      </g>
      <g id="Grupo_2" data-name="Grupo 2" transform="translate(0 33.469)">
        <path id="Trazado_5" data-name="Trazado 5" d="M285.819,62.9c-43.5-18.278-91.127-23.6-140.237-24.08-61.175-.6-123.3,13.061-138.833,23.655Q145.838,27.421,285.819,62.9Z" transform="translate(-6.749 15.412)" fill="red"/>
        <path id="Trazado_6" data-name="Trazado 6" d="M212.349,42.248c.063-.111.132-.226.2-.337a101.728,101.728,0,0,0-9.911-3.358c-17.706-4.138-35.236-8.938-53.278-11.974-30.571-5.147-61.595-7.015-92.545-1.446-17.93,3.225-33.593,9.3-43.475,21.836-2.379,3.017-2.745,5.761-.224,8.623,5.6,6.346,10.622,12.75,5.206,20.257L76.582,65.322c-.049-.3-.1-.61-.151-.913-16.389,1.512-32.784,3.021-48.286,4.452-1.56-3.154-2.525-6.482-4.714-9.271-5.3-6.745-5.592-7.118,1.316-13.1A55.939,55.939,0,0,1,33.215,40.5c13.435-7.817,29.2-11.031,45.7-12.521,30.9-2.792,61.273.148,91.283,5.5C184.372,36.006,198.3,39.3,212.349,42.248Z" transform="translate(5.19 -13.833)" fill="red"/>
        <path id="Trazado_7" data-name="Trazado 7" d="M157.07,43.417A164.743,164.743,0,0,0,93.306,20.231C77.979,18.083,62.794,18,48.179,22.883c-1.926.643-3.69,1.553-5.475,2.315l61.5,9.984c.161-.274.322-.544.483-.817L69.389,23.6C103.09,21.589,130.511,31.136,157.07,43.417Z" transform="translate(85.96 -18.83)" fill="red"/>
        <path id="Trazado_8" data-name="Trazado 8" d="M105.219,46.983c-3.193-10.994-14.937-17.724-28.8-17.091-14.079.64-26.578,8.6-27.626,17.583,9.935,1.364,10.091,1.305,16.331-3.9a26.4,26.4,0,0,1,4.28-2.936C81.045,34.336,93.4,36.4,105.219,46.983Z" transform="translate(101.658 0.065)" fill="red"/>
        <path id="Trazado_9" data-name="Trazado 9" d="M81.459,25.719c-.249-.407-.5-.817-.746-1.224C62.851,34.04,45.038,43.735,20.99,36.828c2.569,5.517,8.034,6.667,13.952,6.615,14.2-.126,27.417-2.167,36.991-11.234C74.566,29.721,78.256,27.868,81.459,25.719Z" transform="translate(29.972 -9.116)" fill="red"/>
        <path id="Trazado_10" data-name="Trazado 10" d="M37.4,28.584c10,9.648,31.663,11.09,41.344,4.223-8.068-.7-16.658,1.753-25.964-2.844,5-1.531,8.414-2.577,11.827-3.62-.122-.4-.244-.8-.366-1.191C55.794,26.228,47.351,27.308,37.4,28.584Z" transform="translate(72.275 -7.99)" fill="red"/>
        <path id="Trazado_11" data-name="Trazado 11" d="M20.207,41.766c7.97-1.3,15.78-3,23.746-3.746a175.023,175.023,0,0,1,24.555-.643c7.863.385,15.629,1.9,23.439,2.918C66.767,33.357,50.022,32.444,30.439,36.2,25.779,37.1,21.123,38.094,20.207,41.766Z" transform="translate(27.952 7.205)" fill="red"/>
        <path id="Trazado_12" data-name="Trazado 12" d="M78.627,34.515c-.483.5-.96.995-1.443,1.49,2.437,1.6,5.05,3.062,7.268,4.815,5.713,4.508,13.026,8.694,7.259,16.156-.068.085.424.414.756.717,1.477-.917,2.959-1.827,4.426-2.748,5.845-3.661,6.5-5.17,1.155-8.989C92.121,41.715,85.145,38.294,78.627,34.515Z" transform="translate(174.864 8.062)" fill="red"/>
        <path id="Trazado_13" data-name="Trazado 13" d="M95.026,46.636c-1.155-4.9-4.1-7.218-8.843-8.017-5.728-.965-10.637.2-15.034,5.11,3.144-.115,5.616.34,7.156-.359C84.652,40.49,89.659,41.7,95.026,46.636Z" transform="translate(159.303 14.564)" fill="red"/>
        <path id="Trazado_14" data-name="Trazado 14" d="M17.154,32.693,22.244,34l-5.655,6.445c9.116-.995,13.055-4.552,10.891-10.761C24.506,30.552,21.61,31.4,17.154,32.693Z" transform="translate(18.623 -0.222)" fill="red"/>
        <path id="Trazado_15" data-name="Trazado 15" d="M285.819,62.9Q145.984,27.286,6.749,62.476C22.28,51.882,84.4,38.222,145.582,38.821,194.692,39.3,242.32,44.623,285.819,62.9Z" transform="translate(-6.749 15.412)" fill="red"/>
        <path id="Trazado_16" data-name="Trazado 16" d="M212.35,42.252c-14.045-2.947-27.977-6.246-42.153-8.775-30.015-5.351-60.381-8.294-91.283-5.5-16.5,1.49-32.267,4.7-45.7,12.521a56.219,56.219,0,0,0-8.468,5.991c-6.9,5.983-6.62,6.36-1.316,13.1,2.194,2.784,3.159,6.116,4.714,9.271,15.5-1.431,31.9-2.94,48.286-4.452.049.3.1.61.151.913L18.319,75.847c5.416-7.5.39-13.911-5.206-20.257-2.525-2.862-2.155-5.606.224-8.623,9.881-12.536,25.545-18.608,43.475-21.836,30.951-5.569,61.975-3.7,92.545,1.446,18.047,3.036,35.572,7.836,53.278,11.974a101.285,101.285,0,0,1,9.911,3.358C212.477,42.03,212.414,42.141,212.35,42.252Z" transform="translate(5.188 -13.838)" fill="red"/>
        <path id="Trazado_17" data-name="Trazado 17" d="M157.073,43.414C130.519,31.133,103.093,21.586,69.388,23.6l35.3,10.768c-.161.274-.322.544-.483.817L42.7,25.2c1.784-.762,3.549-1.671,5.475-2.315,14.615-4.881,29.8-4.8,45.127-2.651A164.7,164.7,0,0,1,157.073,43.414Z" transform="translate(85.956 -18.827)" fill="red"/>
        <path id="Trazado_18" data-name="Trazado 18" d="M105.216,46.983C93.394,36.4,81.041,34.336,69.4,40.641a26.2,26.2,0,0,0-4.28,2.936c-6.245,5.2-6.4,5.262-16.331,3.9,1.043-8.982,13.547-16.94,27.626-17.583C90.279,29.263,102.018,35.989,105.216,46.983Z" transform="translate(101.661 0.065)" fill="red"/>
        <path id="Trazado_19" data-name="Trazado 19" d="M81.455,25.719c-3.2,2.145-6.893,4-9.521,6.49-9.574,9.063-22.8,11.1-36.991,11.234-5.918.052-11.383-1.1-13.952-6.615C45.04,43.735,62.853,34.04,80.714,24.5,80.958,24.9,81.207,25.313,81.455,25.719Z" transform="translate(29.976 -9.116)" fill="red"/>
        <path id="Trazado_20" data-name="Trazado 20" d="M37.4,28.584l26.841-3.432c.122.4.244.8.366,1.191-3.412,1.043-6.82,2.089-11.827,3.62,9.306,4.6,17.9,2.148,25.964,2.844C69.054,39.674,47.4,38.228,37.4,28.584Z" transform="translate(72.275 -7.99)" fill="red"/>
        <path id="Trazado_21" data-name="Trazado 21" d="M20.207,41.765c.916-3.672,5.577-4.67,10.237-5.565,19.578-3.753,36.328-2.844,61.507,4.094-7.81-1.017-15.575-2.533-23.439-2.918a175.025,175.025,0,0,0-24.555.643C35.987,38.762,28.177,40.467,20.207,41.765Z" transform="translate(27.952 7.206)" fill="red"/>
        <path id="Trazado_22" data-name="Trazado 22" d="M78.623,34.515c6.518,3.779,13.494,7.2,19.427,11.437,5.348,3.82,4.69,5.329-1.155,8.989-1.467.921-2.949,1.83-4.426,2.747-.327-.3-.819-.632-.756-.717,5.762-7.462-1.55-11.648-7.259-16.156C82.236,39.067,79.618,37.6,77.185,36,77.658,35.51,78.141,35.014,78.623,34.515Z" transform="translate(174.868 8.062)" fill="red"/>
        <path id="Trazado_23" data-name="Trazado 23" d="M95.023,46.636C89.655,41.7,84.649,40.49,78.307,43.37c-1.54.7-4.012.244-7.156.359,4.4-4.907,9.306-6.076,15.034-5.11C90.913,39.417,93.867,41.732,95.023,46.636Z" transform="translate(159.307 14.564)" fill="red"/>
        <path id="Trazado_24" data-name="Trazado 24" d="M17.154,32.691l10.325-3.006c2.16,6.2-1.774,9.766-10.891,10.761L22.244,34C21.122,33.708,20,33.419,17.154,32.691Z" transform="translate(18.623 -0.22)" fill="red"/>
      </g>
    </g>
  </g>
</svg>
